<svg class="border shadow-md" viewBox="0 0 1149.28 646.47" xmlns="http://www.w3.org/2000/svg" preserveAspectRatio="none" style="width: 1149.28px; height: 646.47px;"><rect class="bg" id="bg" x="0" y="0" width="1149.28" height="646.47" fill="#ffffff"/><g transform="&#10;        translate(-1700.9343999999999&#10;        -530.46455)&#10;        scale(3.81)&#10;                        "><path d="M892,822Q860,1069,610,1008Q360,947,270.5,761Q181,575,277,400Q373,225,600.5,180.5Q828,136,876,355.5Q924,575,892,822Z" fill="none" stroke="#243174" stroke-width="8"/></g><g transform="&#10;        translate(-1425.1072&#10;        -409.79015000000004)&#10;        scale(3.33)&#10;                        "><path d="M892,822Q860,1069,610,1008Q360,947,270.5,761Q181,575,277,400Q373,225,600.5,180.5Q828,136,876,355.5Q924,575,892,822Z" fill="none" stroke="#293684" stroke-width="8"/></g><g transform="&#10;        translate(-1155.0263999999997&#10;        -291.62979999999993)&#10;        scale(2.86)&#10;                        "><path d="M892,822Q860,1069,610,1008Q360,947,270.5,761Q181,575,277,400Q373,225,600.5,180.5Q828,136,876,355.5Q924,575,892,822Z" fill="none" stroke="#2e3b94" stroke-width="8"/></g><g transform="&#10;        translate(-879.1991999999999&#10;        -170.95539999999997)&#10;        scale(2.38)&#10;                        "><path d="M892,822Q860,1069,610,1008Q360,947,270.5,761Q181,575,277,400Q373,225,600.5,180.5Q828,136,876,355.5Q924,575,892,822Z" fill="none" stroke="#3340a4" stroke-width="8"/></g><g transform="&#10;        translate(-609.1184&#10;        -52.79505)&#10;        scale(1.91)&#10;                        "><path d="M892,822Q860,1069,610,1008Q360,947,270.5,761Q181,575,277,400Q373,225,600.5,180.5Q828,136,876,355.5Q924,575,892,822Z" fill="none" stroke="#3845b4" stroke-width="8"/></g><g transform="&#10;        translate(-333.29119999999995&#10;        67.87934999999999)&#10;        scale(1.43)&#10;                        "><path d="M892,822Q860,1069,610,1008Q360,947,270.5,761Q181,575,277,400Q373,225,600.5,180.5Q828,136,876,355.5Q924,575,892,822Z" fill="none" stroke="#3d4ac4" stroke-width="8"/></g><g transform="&#10;        translate(-57.46399999999997&#10;        188.55374999999998)&#10;        scale(0.95)&#10;                        "><path d="M892,822Q860,1069,610,1008Q360,947,270.5,761Q181,575,277,400Q373,225,600.5,180.5Q828,136,876,355.5Q924,575,892,822Z" fill="none" stroke="#424fd4" stroke-width="8"/></g><g transform="&#10;        translate(212.61679999999998&#10;        306.7140999999999)&#10;        scale(0.48)&#10;                        "><path d="M892,822Q860,1069,610,1008Q360,947,270.5,761Q181,575,277,400Q373,225,600.5,180.5Q828,136,876,355.5Q924,575,892,822Z" fill="none" stroke="#4754e4" stroke-width="8"/></g></svg>