<svg xmlns="http://www.w3.org/2000/svg" viewBox="0 0 666.16 666.16"><rect width="666.16" height="666.16" fill="#ffffff" id="bg" class="bg"/><g><g transform="translate(0.00,&#10;                                0.00) rotate(270, 22.205333333333332, 22.205333333333332)"><svg xmlns="http://www.w3.org/2000/svg" id="Layer_1" data-name="Layer 1" viewBox="0 0 100 100" width="44.410666666666664" height="44.410666666666664"><circle cx="50" cy="50" r="50" fill="#7678ED"/></svg></g><g transform="translate(88.82,&#10;                                0.00) rotate(270, 22.205333333333332, 22.205333333333332)"><svg xmlns="http://www.w3.org/2000/svg" id="Layer_1" data-name="Layer 1" viewBox="0 0 100 100" width="44.410666666666664" height="44.410666666666664"><circle cx="50" cy="50" r="50" fill="#7678ED"/></svg></g><g transform="translate(222.05,&#10;                                0.00) rotate(180, 22.205333333333332, 22.205333333333332)"><svg xmlns="http://www.w3.org/2000/svg" id="Layer_1" data-name="Layer 1" viewBox="0 0 100 100" width="44.410666666666664" height="44.410666666666664"><circle cx="50" cy="50" r="50" fill="#7678ED"/></svg></g><g transform="translate(222.05,&#10;                                44.41) rotate(90, 22.205333333333332, 22.205333333333332)"><svg xmlns="http://www.w3.org/2000/svg" id="Layer_1" data-name="Layer 1" viewBox="0 0 100 100" width="44.410666666666664" height="44.410666666666664"><circle cx="50" cy="50" r="50" fill="#7678ED"/></svg></g><g transform="translate(310.87,&#10;                                0.00) rotate(270, 22.205333333333332, 22.205333333333332)"><svg xmlns="http://www.w3.org/2000/svg" id="Layer_1" data-name="Layer 1" viewBox="0 0 100 100" width="44.410666666666664" height="44.410666666666664"><path d="M50,100h0A50,50,0,0,1,0,50V0H100V50A50,50,0,0,1,50,100Z" fill="#F18701"/></svg></g><g transform="translate(310.87,&#10;                                44.41) rotate(270, 22.205333333333332, 22.205333333333332)"><svg xmlns="http://www.w3.org/2000/svg" id="Layer_1" data-name="Layer 1" viewBox="0 0 100 100" width="44.410666666666664" height="44.410666666666664"><circle cx="50" cy="50" r="50" fill="#7678ED"/></svg></g><g transform="translate(488.52,&#10;                                0.00) rotate(270, 22.205333333333332, 22.205333333333332)"><svg xmlns="http://www.w3.org/2000/svg" id="Layer_1" data-name="Layer 1" viewBox="0 0 100 100" width="44.410666666666664" height="44.410666666666664"><path d="M50,100a50,50,0,1,1,50-50v50Z" fill="#3D348B"/></svg></g><g transform="translate(488.52,&#10;                                44.41) rotate(270, 22.205333333333332, 22.205333333333332)"><svg xmlns="http://www.w3.org/2000/svg" id="Layer_1" data-name="Layer 1" viewBox="0 0 100 100" width="44.410666666666664" height="44.410666666666664"><circle cx="50" cy="50" r="50" fill="#7678ED"/></svg></g><g transform="translate(621.75,&#10;                                0.00) rotate(0, 22.205333333333332, 22.205333333333332)"><svg xmlns="http://www.w3.org/2000/svg" id="Layer_1" data-name="Layer 1" viewBox="0 0 100 100" width="44.410666666666664" height="44.410666666666664"><path d="M50,100a50,50,0,1,1,50-50v50Z" fill="#3D348B"/></svg></g><g transform="translate(577.34,&#10;                                44.41) rotate(180, 22.205333333333332, 22.205333333333332)"><svg xmlns="http://www.w3.org/2000/svg" id="Layer_1" data-name="Layer 1" viewBox="0 0 100 100" width="44.410666666666664" height="44.410666666666664"><circle cx="50" cy="50" r="50" fill="#7678ED"/></svg></g></g><g><g transform="translate(88.82,&#10;                                88.82) rotate(180, 22.205333333333332, 22.205333333333332)"><svg xmlns="http://www.w3.org/2000/svg" id="Layer_1" data-name="Layer 1" viewBox="0 0 100 100" width="44.410666666666664" height="44.410666666666664"><path d="M50,100a50,50,0,1,1,50-50v50Z" fill="#3D348B"/></svg></g><g transform="translate(44.41,&#10;                                133.23) rotate(270, 22.205333333333332, 22.205333333333332)"><svg xmlns="http://www.w3.org/2000/svg" id="Layer_1" data-name="Layer 1" viewBox="0 0 100 100" width="44.410666666666664" height="44.410666666666664"><path d="M50,100a50,50,0,1,1,50-50v50Z" fill="#3D348B"/></svg></g><g transform="translate(177.64,&#10;                                88.82) rotate(180, 22.205333333333332, 22.205333333333332)"><svg xmlns="http://www.w3.org/2000/svg" id="Layer_1" data-name="Layer 1" viewBox="0 0 100 100" width="44.410666666666664" height="44.410666666666664"><path d="M50,100a50,50,0,1,1,50-50v50Z" fill="#3D348B"/></svg></g><g transform="translate(222.05,&#10;                                88.82) rotate(270, 22.205333333333332, 22.205333333333332)"><svg xmlns="http://www.w3.org/2000/svg" id="Layer_1" data-name="Layer 1" viewBox="0 0 100 100" width="44.410666666666664" height="44.410666666666664"><circle cx="50" cy="50" r="50" fill="#7678ED"/></svg></g><g transform="translate(133.23,&#10;                                133.23) rotate(0, 22.205333333333332, 22.205333333333332)"><svg xmlns="http://www.w3.org/2000/svg" id="Layer_1" data-name="Layer 1" viewBox="0 0 100 100" width="44.410666666666664" height="44.410666666666664"><path d="M50,100h0A50,50,0,0,1,0,50V0H100V50A50,50,0,0,1,50,100Z" fill="#F18701"/></svg></g><g transform="translate(177.64,&#10;                                133.23) rotate(0, 22.205333333333332, 22.205333333333332)"><svg xmlns="http://www.w3.org/2000/svg" id="Layer_1" data-name="Layer 1" viewBox="0 0 100 100" width="44.410666666666664" height="44.410666666666664"><path d="M100,100A50,50,0,0,0,0,100Z" fill="#F7B801"/></svg></g><g transform="translate(310.87,&#10;                                88.82) rotate(90, 22.205333333333332, 22.205333333333332)"><svg xmlns="http://www.w3.org/2000/svg" id="Layer_1" data-name="Layer 1" viewBox="0 0 100 100" width="44.410666666666664" height="44.410666666666664"><path d="M50,100h0A50,50,0,0,1,0,50V0H100V50A50,50,0,0,1,50,100Z" fill="#F18701"/></svg></g><g transform="translate(310.87,&#10;                                133.23) rotate(0, 22.205333333333332, 22.205333333333332)"><svg xmlns="http://www.w3.org/2000/svg" id="Layer_1" data-name="Layer 1" viewBox="0 0 100 100" width="44.410666666666664" height="44.410666666666664"><path d="M50,100a50,50,0,1,1,50-50v50Z" fill="#3D348B"/></svg></g><g transform="translate(399.70,&#10;                                88.82) rotate(180, 22.205333333333332, 22.205333333333332)"><svg xmlns="http://www.w3.org/2000/svg" id="Layer_1" data-name="Layer 1" viewBox="0 0 100 100" width="44.410666666666664" height="44.410666666666664"><path d="M50,100h0A50,50,0,0,1,0,50V0H100V50A50,50,0,0,1,50,100Z" fill="#F18701"/></svg></g><g transform="translate(444.11,&#10;                                133.23) rotate(90, 22.205333333333332, 22.205333333333332)"><svg xmlns="http://www.w3.org/2000/svg" id="Layer_1" data-name="Layer 1" viewBox="0 0 100 100" width="44.410666666666664" height="44.410666666666664"><circle cx="50" cy="50" r="50" fill="#7678ED"/></svg></g><g transform="translate(532.93,&#10;                                88.82) rotate(0, 22.205333333333332, 22.205333333333332)"><svg xmlns="http://www.w3.org/2000/svg" id="Layer_1" data-name="Layer 1" viewBox="0 0 100 100" width="44.410666666666664" height="44.410666666666664"><circle cx="50" cy="50" r="50" fill="#7678ED"/></svg></g><g transform="translate(577.34,&#10;                                88.82) rotate(180, 22.205333333333332, 22.205333333333332)"><svg xmlns="http://www.w3.org/2000/svg" id="Layer_1" data-name="Layer 1" viewBox="0 0 100 100" width="44.410666666666664" height="44.410666666666664"><path d="M50,100a50,50,0,1,1,50-50v50Z" fill="#3D348B"/></svg></g><g transform="translate(621.75,&#10;                                88.82) rotate(90, 22.205333333333332, 22.205333333333332)"><svg xmlns="http://www.w3.org/2000/svg" id="Layer_1" data-name="Layer 1" viewBox="0 0 100 100" width="44.410666666666664" height="44.410666666666664"><path d="M50,100a50,50,0,1,1,50-50v50Z" fill="#3D348B"/></svg></g><g transform="translate(577.34,&#10;                                133.23) rotate(270, 22.205333333333332, 22.205333333333332)"><svg xmlns="http://www.w3.org/2000/svg" id="Layer_1" data-name="Layer 1" viewBox="0 0 100 100" width="44.410666666666664" height="44.410666666666664"><path d="M100,100A50,50,0,0,0,0,100Z" fill="#F7B801"/></svg></g></g><g><g transform="translate(44.41,&#10;                                177.64) rotate(270, 22.205333333333332, 22.205333333333332)"><svg xmlns="http://www.w3.org/2000/svg" id="Layer_1" data-name="Layer 1" viewBox="0 0 100 100" width="44.410666666666664" height="44.410666666666664"><path d="M50,100a50,50,0,1,1,50-50v50Z" fill="#3D348B"/></svg></g><g transform="translate(44.41,&#10;                                222.05) rotate(90, 22.205333333333332, 22.205333333333332)"><svg xmlns="http://www.w3.org/2000/svg" id="Layer_1" data-name="Layer 1" viewBox="0 0 100 100" width="44.410666666666664" height="44.410666666666664"><circle cx="50" cy="50" r="50" fill="#7678ED"/></svg></g><g transform="translate(133.23,&#10;                                177.64) rotate(0, 22.205333333333332, 22.205333333333332)"><svg xmlns="http://www.w3.org/2000/svg" id="Layer_1" data-name="Layer 1" viewBox="0 0 100 100" width="44.410666666666664" height="44.410666666666664"><path d="M50,100h0A50,50,0,0,1,0,50V0H100V50A50,50,0,0,1,50,100Z" fill="#F18701"/></svg></g><g transform="translate(133.23,&#10;                                222.05) rotate(180, 22.205333333333332, 22.205333333333332)"><svg xmlns="http://www.w3.org/2000/svg" id="Layer_1" data-name="Layer 1" viewBox="0 0 100 100" width="44.410666666666664" height="44.410666666666664"><path d="M50,100h0A50,50,0,0,1,0,50V0H100V50A50,50,0,0,1,50,100Z" fill="#F18701"/></svg></g><g transform="translate(355.29,&#10;                                177.64) rotate(90, 22.205333333333332, 22.205333333333332)"><svg xmlns="http://www.w3.org/2000/svg" id="Layer_1" data-name="Layer 1" viewBox="0 0 100 100" width="44.410666666666664" height="44.410666666666664"><path d="M100,100A50,50,0,0,0,0,100Z" fill="#F7B801"/></svg></g><g transform="translate(266.46,&#10;                                222.05) rotate(180, 22.205333333333332, 22.205333333333332)"><svg xmlns="http://www.w3.org/2000/svg" id="Layer_1" data-name="Layer 1" viewBox="0 0 100 100" width="44.410666666666664" height="44.410666666666664"><path d="M50,100h0A50,50,0,0,1,0,50V0H100V50A50,50,0,0,1,50,100Z" fill="#F18701"/></svg></g><g transform="translate(488.52,&#10;                                177.64) rotate(180, 22.205333333333332, 22.205333333333332)"><svg xmlns="http://www.w3.org/2000/svg" id="Layer_1" data-name="Layer 1" viewBox="0 0 100 100" width="44.410666666666664" height="44.410666666666664"><circle cx="50" cy="50" r="50" fill="#7678ED"/></svg></g><g transform="translate(399.70,&#10;                                222.05) rotate(90, 22.205333333333332, 22.205333333333332)"><svg xmlns="http://www.w3.org/2000/svg" id="Layer_1" data-name="Layer 1" viewBox="0 0 100 100" width="44.410666666666664" height="44.410666666666664"><path d="M50,100h0A50,50,0,0,1,0,50V0H100V50A50,50,0,0,1,50,100Z" fill="#F18701"/></svg></g><g transform="translate(444.11,&#10;                                222.05) rotate(0, 22.205333333333332, 22.205333333333332)"><svg xmlns="http://www.w3.org/2000/svg" id="Layer_1" data-name="Layer 1" viewBox="0 0 100 100" width="44.410666666666664" height="44.410666666666664"><path d="M50,100a50,50,0,1,1,50-50v50Z" fill="#3D348B"/></svg></g><g transform="translate(532.93,&#10;                                177.64) rotate(180, 22.205333333333332, 22.205333333333332)"><svg xmlns="http://www.w3.org/2000/svg" id="Layer_1" data-name="Layer 1" viewBox="0 0 100 100" width="44.410666666666664" height="44.410666666666664"><circle cx="50" cy="50" r="50" fill="#7678ED"/></svg></g><g transform="translate(577.34,&#10;                                177.64) rotate(0, 22.205333333333332, 22.205333333333332)"><svg xmlns="http://www.w3.org/2000/svg" id="Layer_1" data-name="Layer 1" viewBox="0 0 100 100" width="44.410666666666664" height="44.410666666666664"><path d="M50,100a50,50,0,1,1,50-50v50Z" fill="#3D348B"/></svg></g><g transform="translate(621.75,&#10;                                177.64) rotate(180, 22.205333333333332, 22.205333333333332)"><svg xmlns="http://www.w3.org/2000/svg" id="Layer_1" data-name="Layer 1" viewBox="0 0 100 100" width="44.410666666666664" height="44.410666666666664"><path d="M50,100a50,50,0,1,1,50-50v50Z" fill="#3D348B"/></svg></g><g transform="translate(577.34,&#10;                                222.05) rotate(270, 22.205333333333332, 22.205333333333332)"><svg xmlns="http://www.w3.org/2000/svg" id="Layer_1" data-name="Layer 1" viewBox="0 0 100 100" width="44.410666666666664" height="44.410666666666664"><circle cx="50" cy="50" r="50" fill="#7678ED"/></svg></g></g><g><g transform="translate(0.00,&#10;                                266.46) rotate(180, 22.205333333333332, 22.205333333333332)"><svg xmlns="http://www.w3.org/2000/svg" id="Layer_1" data-name="Layer 1" viewBox="0 0 100 100" width="44.410666666666664" height="44.410666666666664"><path d="M50,100h0A50,50,0,0,1,0,50V0H100V50A50,50,0,0,1,50,100Z" fill="#F18701"/></svg></g><g transform="translate(88.82,&#10;                                266.46) rotate(180, 22.205333333333332, 22.205333333333332)"><svg xmlns="http://www.w3.org/2000/svg" id="Layer_1" data-name="Layer 1" viewBox="0 0 100 100" width="44.410666666666664" height="44.410666666666664"><path d="M100,100A50,50,0,0,0,0,100Z" fill="#F7B801"/></svg></g><g transform="translate(0.00,&#10;                                310.87) rotate(180, 22.205333333333332, 22.205333333333332)"><svg xmlns="http://www.w3.org/2000/svg" id="Layer_1" data-name="Layer 1" viewBox="0 0 100 100" width="44.410666666666664" height="44.410666666666664"><path d="M50,100h0A50,50,0,0,1,0,50V0H100V50A50,50,0,0,1,50,100Z" fill="#F18701"/></svg></g><g transform="translate(222.05,&#10;                                266.46) rotate(180, 22.205333333333332, 22.205333333333332)"><svg xmlns="http://www.w3.org/2000/svg" id="Layer_1" data-name="Layer 1" viewBox="0 0 100 100" width="44.410666666666664" height="44.410666666666664"><path d="M50,100a50,50,0,1,1,50-50v50Z" fill="#3D348B"/></svg></g><g transform="translate(310.87,&#10;                                266.46) rotate(0, 22.205333333333332, 22.205333333333332)"><svg xmlns="http://www.w3.org/2000/svg" id="Layer_1" data-name="Layer 1" viewBox="0 0 100 100" width="44.410666666666664" height="44.410666666666664"><path d="M50,100h0A50,50,0,0,1,0,50V0H100V50A50,50,0,0,1,50,100Z" fill="#F18701"/></svg></g><g transform="translate(355.29,&#10;                                266.46) rotate(90, 22.205333333333332, 22.205333333333332)"><svg xmlns="http://www.w3.org/2000/svg" id="Layer_1" data-name="Layer 1" viewBox="0 0 100 100" width="44.410666666666664" height="44.410666666666664"><circle cx="50" cy="50" r="50" fill="#7678ED"/></svg></g><g transform="translate(266.46,&#10;                                310.87) rotate(270, 22.205333333333332, 22.205333333333332)"><svg xmlns="http://www.w3.org/2000/svg" id="Layer_1" data-name="Layer 1" viewBox="0 0 100 100" width="44.410666666666664" height="44.410666666666664"><path d="M50,100h0A50,50,0,0,1,0,50V0H100V50A50,50,0,0,1,50,100Z" fill="#F18701"/></svg></g><g transform="translate(355.29,&#10;                                310.87) rotate(270, 22.205333333333332, 22.205333333333332)"><svg xmlns="http://www.w3.org/2000/svg" id="Layer_1" data-name="Layer 1" viewBox="0 0 100 100" width="44.410666666666664" height="44.410666666666664"><circle cx="50" cy="50" r="50" fill="#7678ED"/></svg></g><g transform="translate(399.70,&#10;                                266.46) rotate(0, 22.205333333333332, 22.205333333333332)"><svg xmlns="http://www.w3.org/2000/svg" id="Layer_1" data-name="Layer 1" viewBox="0 0 100 100" width="44.410666666666664" height="44.410666666666664"><circle cx="50" cy="50" r="50" fill="#7678ED"/></svg></g><g transform="translate(488.52,&#10;                                266.46) rotate(270, 22.205333333333332, 22.205333333333332)"><svg xmlns="http://www.w3.org/2000/svg" id="Layer_1" data-name="Layer 1" viewBox="0 0 100 100" width="44.410666666666664" height="44.410666666666664"><circle cx="50" cy="50" r="50" fill="#7678ED"/></svg></g><g transform="translate(399.70,&#10;                                310.87) rotate(270, 22.205333333333332, 22.205333333333332)"><svg xmlns="http://www.w3.org/2000/svg" id="Layer_1" data-name="Layer 1" viewBox="0 0 100 100" width="44.410666666666664" height="44.410666666666664"><path d="M50,100h0A50,50,0,0,1,0,50V0H100V50A50,50,0,0,1,50,100Z" fill="#F18701"/></svg></g><g transform="translate(444.11,&#10;                                310.87) rotate(180, 22.205333333333332, 22.205333333333332)"><svg xmlns="http://www.w3.org/2000/svg" id="Layer_1" data-name="Layer 1" viewBox="0 0 100 100" width="44.410666666666664" height="44.410666666666664"><circle cx="50" cy="50" r="50" fill="#7678ED"/></svg></g><g transform="translate(577.34,&#10;                                266.46) rotate(180, 22.205333333333332, 22.205333333333332)"><svg xmlns="http://www.w3.org/2000/svg" id="Layer_1" data-name="Layer 1" viewBox="0 0 100 100" width="44.410666666666664" height="44.410666666666664"><path d="M50,100h0A50,50,0,0,1,0,50V0H100V50A50,50,0,0,1,50,100Z" fill="#F18701"/></svg></g><g transform="translate(621.75,&#10;                                266.46) rotate(0, 22.205333333333332, 22.205333333333332)"><svg xmlns="http://www.w3.org/2000/svg" id="Layer_1" data-name="Layer 1" viewBox="0 0 100 100" width="44.410666666666664" height="44.410666666666664"><circle cx="50" cy="50" r="50" fill="#7678ED"/></svg></g><g transform="translate(577.34,&#10;                                310.87) rotate(90, 22.205333333333332, 22.205333333333332)"><svg xmlns="http://www.w3.org/2000/svg" id="Layer_1" data-name="Layer 1" viewBox="0 0 100 100" width="44.410666666666664" height="44.410666666666664"><path d="M100,100A50,50,0,0,0,0,100Z" fill="#F7B801"/></svg></g></g><g><g transform="translate(44.41,&#10;                                399.70) rotate(0, 22.205333333333332, 22.205333333333332)"><svg xmlns="http://www.w3.org/2000/svg" id="Layer_1" data-name="Layer 1" viewBox="0 0 100 100" width="44.410666666666664" height="44.410666666666664"><path d="M100,100A50,50,0,0,0,0,100Z" fill="#F7B801"/></svg></g><g transform="translate(88.82,&#10;                                399.70) rotate(180, 22.205333333333332, 22.205333333333332)"><svg xmlns="http://www.w3.org/2000/svg" id="Layer_1" data-name="Layer 1" viewBox="0 0 100 100" width="44.410666666666664" height="44.410666666666664"><circle cx="50" cy="50" r="50" fill="#7678ED"/></svg></g><g transform="translate(133.23,&#10;                                355.29) rotate(0, 22.205333333333332, 22.205333333333332)"><svg xmlns="http://www.w3.org/2000/svg" id="Layer_1" data-name="Layer 1" viewBox="0 0 100 100" width="44.410666666666664" height="44.410666666666664"><circle cx="50" cy="50" r="50" fill="#7678ED"/></svg></g><g transform="translate(177.64,&#10;                                355.29) rotate(90, 22.205333333333332, 22.205333333333332)"><svg xmlns="http://www.w3.org/2000/svg" id="Layer_1" data-name="Layer 1" viewBox="0 0 100 100" width="44.410666666666664" height="44.410666666666664"><path d="M50,100h0A50,50,0,0,1,0,50V0H100V50A50,50,0,0,1,50,100Z" fill="#F18701"/></svg></g><g transform="translate(222.05,&#10;                                355.29) rotate(180, 22.205333333333332, 22.205333333333332)"><svg xmlns="http://www.w3.org/2000/svg" id="Layer_1" data-name="Layer 1" viewBox="0 0 100 100" width="44.410666666666664" height="44.410666666666664"><circle cx="50" cy="50" r="50" fill="#7678ED"/></svg></g><g transform="translate(310.87,&#10;                                355.29) rotate(0, 22.205333333333332, 22.205333333333332)"><svg xmlns="http://www.w3.org/2000/svg" id="Layer_1" data-name="Layer 1" viewBox="0 0 100 100" width="44.410666666666664" height="44.410666666666664"><path d="M50,100h0A50,50,0,0,1,0,50V0H100V50A50,50,0,0,1,50,100Z" fill="#F18701"/></svg></g><g transform="translate(266.46,&#10;                                399.70) rotate(0, 22.205333333333332, 22.205333333333332)"><svg xmlns="http://www.w3.org/2000/svg" id="Layer_1" data-name="Layer 1" viewBox="0 0 100 100" width="44.410666666666664" height="44.410666666666664"><path d="M50,100h0A50,50,0,0,1,0,50V0H100V50A50,50,0,0,1,50,100Z" fill="#F18701"/></svg></g><g transform="translate(310.87,&#10;                                399.70) rotate(90, 22.205333333333332, 22.205333333333332)"><svg xmlns="http://www.w3.org/2000/svg" id="Layer_1" data-name="Layer 1" viewBox="0 0 100 100" width="44.410666666666664" height="44.410666666666664"><circle cx="50" cy="50" r="50" fill="#7678ED"/></svg></g><g transform="translate(488.52,&#10;                                355.29) rotate(270, 22.205333333333332, 22.205333333333332)"><svg xmlns="http://www.w3.org/2000/svg" id="Layer_1" data-name="Layer 1" viewBox="0 0 100 100" width="44.410666666666664" height="44.410666666666664"><circle cx="50" cy="50" r="50" fill="#7678ED"/></svg></g><g transform="translate(488.52,&#10;                                399.70) rotate(90, 22.205333333333332, 22.205333333333332)"><svg xmlns="http://www.w3.org/2000/svg" id="Layer_1" data-name="Layer 1" viewBox="0 0 100 100" width="44.410666666666664" height="44.410666666666664"><circle cx="50" cy="50" r="50" fill="#7678ED"/></svg></g><g transform="translate(577.34,&#10;                                355.29) rotate(270, 22.205333333333332, 22.205333333333332)"><svg xmlns="http://www.w3.org/2000/svg" id="Layer_1" data-name="Layer 1" viewBox="0 0 100 100" width="44.410666666666664" height="44.410666666666664"><path d="M50,100h0A50,50,0,0,1,0,50V0H100V50A50,50,0,0,1,50,100Z" fill="#F18701"/></svg></g><g transform="translate(621.75,&#10;                                355.29) rotate(0, 22.205333333333332, 22.205333333333332)"><svg xmlns="http://www.w3.org/2000/svg" id="Layer_1" data-name="Layer 1" viewBox="0 0 100 100" width="44.410666666666664" height="44.410666666666664"><path d="M50,100a50,50,0,1,1,50-50v50Z" fill="#3D348B"/></svg></g><g transform="translate(532.93,&#10;                                399.70) rotate(0, 22.205333333333332, 22.205333333333332)"><svg xmlns="http://www.w3.org/2000/svg" id="Layer_1" data-name="Layer 1" viewBox="0 0 100 100" width="44.410666666666664" height="44.410666666666664"><path d="M50,100h0A50,50,0,0,1,0,50V0H100V50A50,50,0,0,1,50,100Z" fill="#F18701"/></svg></g><g transform="translate(577.34,&#10;                                399.70) rotate(270, 22.205333333333332, 22.205333333333332)"><svg xmlns="http://www.w3.org/2000/svg" id="Layer_1" data-name="Layer 1" viewBox="0 0 100 100" width="44.410666666666664" height="44.410666666666664"><path d="M50,100a50,50,0,1,1,50-50v50Z" fill="#3D348B"/></svg></g></g><g><g transform="translate(177.64,&#10;                                444.11) rotate(180, 22.205333333333332, 22.205333333333332)"><svg xmlns="http://www.w3.org/2000/svg" id="Layer_1" data-name="Layer 1" viewBox="0 0 100 100" width="44.410666666666664" height="44.410666666666664"><path d="M50,100h0A50,50,0,0,1,0,50V0H100V50A50,50,0,0,1,50,100Z" fill="#F18701"/></svg></g><g transform="translate(222.05,&#10;                                444.11) rotate(270, 22.205333333333332, 22.205333333333332)"><svg xmlns="http://www.w3.org/2000/svg" id="Layer_1" data-name="Layer 1" viewBox="0 0 100 100" width="44.410666666666664" height="44.410666666666664"><path d="M50,100a50,50,0,1,1,50-50v50Z" fill="#3D348B"/></svg></g><g transform="translate(177.64,&#10;                                488.52) rotate(270, 22.205333333333332, 22.205333333333332)"><svg xmlns="http://www.w3.org/2000/svg" id="Layer_1" data-name="Layer 1" viewBox="0 0 100 100" width="44.410666666666664" height="44.410666666666664"><path d="M100,100A50,50,0,0,0,0,100Z" fill="#F7B801"/></svg></g><g transform="translate(222.05,&#10;                                488.52) rotate(180, 22.205333333333332, 22.205333333333332)"><svg xmlns="http://www.w3.org/2000/svg" id="Layer_1" data-name="Layer 1" viewBox="0 0 100 100" width="44.410666666666664" height="44.410666666666664"><circle cx="50" cy="50" r="50" fill="#7678ED"/></svg></g><g transform="translate(266.46,&#10;                                444.11) rotate(270, 22.205333333333332, 22.205333333333332)"><svg xmlns="http://www.w3.org/2000/svg" id="Layer_1" data-name="Layer 1" viewBox="0 0 100 100" width="44.410666666666664" height="44.410666666666664"><circle cx="50" cy="50" r="50" fill="#7678ED"/></svg></g><g transform="translate(399.70,&#10;                                444.11) rotate(90, 22.205333333333332, 22.205333333333332)"><svg xmlns="http://www.w3.org/2000/svg" id="Layer_1" data-name="Layer 1" viewBox="0 0 100 100" width="44.410666666666664" height="44.410666666666664"><circle cx="50" cy="50" r="50" fill="#7678ED"/></svg></g><g transform="translate(577.34,&#10;                                444.11) rotate(0, 22.205333333333332, 22.205333333333332)"><svg xmlns="http://www.w3.org/2000/svg" id="Layer_1" data-name="Layer 1" viewBox="0 0 100 100" width="44.410666666666664" height="44.410666666666664"><path d="M50,100a50,50,0,1,1,50-50v50Z" fill="#3D348B"/></svg></g><g transform="translate(621.75,&#10;                                444.11) rotate(270, 22.205333333333332, 22.205333333333332)"><svg xmlns="http://www.w3.org/2000/svg" id="Layer_1" data-name="Layer 1" viewBox="0 0 100 100" width="44.410666666666664" height="44.410666666666664"><path d="M100,100A50,50,0,0,0,0,100Z" fill="#F7B801"/></svg></g></g><g><g transform="translate(88.82,&#10;                                532.93) rotate(270, 22.205333333333332, 22.205333333333332)"><svg xmlns="http://www.w3.org/2000/svg" id="Layer_1" data-name="Layer 1" viewBox="0 0 100 100" width="44.410666666666664" height="44.410666666666664"><path d="M100,100A50,50,0,0,0,0,100Z" fill="#F7B801"/></svg></g><g transform="translate(0.00,&#10;                                577.34) rotate(90, 22.205333333333332, 22.205333333333332)"><svg xmlns="http://www.w3.org/2000/svg" id="Layer_1" data-name="Layer 1" viewBox="0 0 100 100" width="44.410666666666664" height="44.410666666666664"><path d="M50,100h0A50,50,0,0,1,0,50V0H100V50A50,50,0,0,1,50,100Z" fill="#F18701"/></svg></g><g transform="translate(44.41,&#10;                                577.34) rotate(90, 22.205333333333332, 22.205333333333332)"><svg xmlns="http://www.w3.org/2000/svg" id="Layer_1" data-name="Layer 1" viewBox="0 0 100 100" width="44.410666666666664" height="44.410666666666664"><circle cx="50" cy="50" r="50" fill="#7678ED"/></svg></g><g transform="translate(133.23,&#10;                                532.93) rotate(0, 22.205333333333332, 22.205333333333332)"><svg xmlns="http://www.w3.org/2000/svg" id="Layer_1" data-name="Layer 1" viewBox="0 0 100 100" width="44.410666666666664" height="44.410666666666664"><circle cx="50" cy="50" r="50" fill="#7678ED"/></svg></g><g transform="translate(177.64,&#10;                                532.93) rotate(0, 22.205333333333332, 22.205333333333332)"><svg xmlns="http://www.w3.org/2000/svg" id="Layer_1" data-name="Layer 1" viewBox="0 0 100 100" width="44.410666666666664" height="44.410666666666664"><path d="M50,100h0A50,50,0,0,1,0,50V0H100V50A50,50,0,0,1,50,100Z" fill="#F18701"/></svg></g><g transform="translate(222.05,&#10;                                532.93) rotate(270, 22.205333333333332, 22.205333333333332)"><svg xmlns="http://www.w3.org/2000/svg" id="Layer_1" data-name="Layer 1" viewBox="0 0 100 100" width="44.410666666666664" height="44.410666666666664"><path d="M100,100A50,50,0,0,0,0,100Z" fill="#F7B801"/></svg></g><g transform="translate(133.23,&#10;                                577.34) rotate(270, 22.205333333333332, 22.205333333333332)"><svg xmlns="http://www.w3.org/2000/svg" id="Layer_1" data-name="Layer 1" viewBox="0 0 100 100" width="44.410666666666664" height="44.410666666666664"><path d="M50,100h0A50,50,0,0,1,0,50V0H100V50A50,50,0,0,1,50,100Z" fill="#F18701"/></svg></g><g transform="translate(266.46,&#10;                                532.93) rotate(180, 22.205333333333332, 22.205333333333332)"><svg xmlns="http://www.w3.org/2000/svg" id="Layer_1" data-name="Layer 1" viewBox="0 0 100 100" width="44.410666666666664" height="44.410666666666664"><circle cx="50" cy="50" r="50" fill="#7678ED"/></svg></g><g transform="translate(355.29,&#10;                                532.93) rotate(180, 22.205333333333332, 22.205333333333332)"><svg xmlns="http://www.w3.org/2000/svg" id="Layer_1" data-name="Layer 1" viewBox="0 0 100 100" width="44.410666666666664" height="44.410666666666664"><path d="M50,100a50,50,0,1,1,50-50v50Z" fill="#3D348B"/></svg></g><g transform="translate(310.87,&#10;                                577.34) rotate(180, 22.205333333333332, 22.205333333333332)"><svg xmlns="http://www.w3.org/2000/svg" id="Layer_1" data-name="Layer 1" viewBox="0 0 100 100" width="44.410666666666664" height="44.410666666666664"><path d="M50,100a50,50,0,1,1,50-50v50Z" fill="#3D348B"/></svg></g><g transform="translate(399.70,&#10;                                532.93) rotate(270, 22.205333333333332, 22.205333333333332)"><svg xmlns="http://www.w3.org/2000/svg" id="Layer_1" data-name="Layer 1" viewBox="0 0 100 100" width="44.410666666666664" height="44.410666666666664"><path d="M50,100h0A50,50,0,0,1,0,50V0H100V50A50,50,0,0,1,50,100Z" fill="#F18701"/></svg></g><g transform="translate(577.34,&#10;                                532.93) rotate(0, 22.205333333333332, 22.205333333333332)"><svg xmlns="http://www.w3.org/2000/svg" id="Layer_1" data-name="Layer 1" viewBox="0 0 100 100" width="44.410666666666664" height="44.410666666666664"><path d="M50,100h0A50,50,0,0,1,0,50V0H100V50A50,50,0,0,1,50,100Z" fill="#F18701"/></svg></g><g transform="translate(621.75,&#10;                                532.93) rotate(90, 22.205333333333332, 22.205333333333332)"><svg xmlns="http://www.w3.org/2000/svg" id="Layer_1" data-name="Layer 1" viewBox="0 0 100 100" width="44.410666666666664" height="44.410666666666664"><circle cx="50" cy="50" r="50" fill="#7678ED"/></svg></g><g transform="translate(577.34,&#10;                                577.34) rotate(0, 22.205333333333332, 22.205333333333332)"><svg xmlns="http://www.w3.org/2000/svg" id="Layer_1" data-name="Layer 1" viewBox="0 0 100 100" width="44.410666666666664" height="44.410666666666664"><circle cx="50" cy="50" r="50" fill="#7678ED"/></svg></g></g><g><g transform="translate(0.00,&#10;                                621.75) rotate(270, 22.205333333333332, 22.205333333333332)"><svg xmlns="http://www.w3.org/2000/svg" id="Layer_1" data-name="Layer 1" viewBox="0 0 100 100" width="44.410666666666664" height="44.410666666666664"><circle cx="50" cy="50" r="50" fill="#7678ED"/></svg></g><g transform="translate(44.41,&#10;                                621.75) rotate(180, 22.205333333333332, 22.205333333333332)"><svg xmlns="http://www.w3.org/2000/svg" id="Layer_1" data-name="Layer 1" viewBox="0 0 100 100" width="44.410666666666664" height="44.410666666666664"><path d="M50,100a50,50,0,1,1,50-50v50Z" fill="#3D348B"/></svg></g><g transform="translate(88.82,&#10;                                621.75) rotate(0, 22.205333333333332, 22.205333333333332)"><svg xmlns="http://www.w3.org/2000/svg" id="Layer_1" data-name="Layer 1" viewBox="0 0 100 100" width="44.410666666666664" height="44.410666666666664"><path d="M100,100A50,50,0,0,0,0,100Z" fill="#F7B801"/></svg></g><g transform="translate(0.00,&#10;                                666.16) rotate(0, 22.205333333333332, 22.205333333333332)"><svg xmlns="http://www.w3.org/2000/svg" id="Layer_1" data-name="Layer 1" viewBox="0 0 100 100" width="44.410666666666664" height="44.410666666666664"><path d="M50,100h0A50,50,0,0,1,0,50V0H100V50A50,50,0,0,1,50,100Z" fill="#F18701"/></svg></g><g transform="translate(44.41,&#10;                                666.16) rotate(270, 22.205333333333332, 22.205333333333332)"><svg xmlns="http://www.w3.org/2000/svg" id="Layer_1" data-name="Layer 1" viewBox="0 0 100 100" width="44.410666666666664" height="44.410666666666664"><circle cx="50" cy="50" r="50" fill="#7678ED"/></svg></g><g transform="translate(177.64,&#10;                                621.75) rotate(0, 22.205333333333332, 22.205333333333332)"><svg xmlns="http://www.w3.org/2000/svg" id="Layer_1" data-name="Layer 1" viewBox="0 0 100 100" width="44.410666666666664" height="44.410666666666664"><path d="M50,100h0A50,50,0,0,1,0,50V0H100V50A50,50,0,0,1,50,100Z" fill="#F18701"/></svg></g><g transform="translate(266.46,&#10;                                621.75) rotate(180, 22.205333333333332, 22.205333333333332)"><svg xmlns="http://www.w3.org/2000/svg" id="Layer_1" data-name="Layer 1" viewBox="0 0 100 100" width="44.410666666666664" height="44.410666666666664"><path d="M50,100h0A50,50,0,0,1,0,50V0H100V50A50,50,0,0,1,50,100Z" fill="#F18701"/></svg></g><g transform="translate(355.29,&#10;                                621.75) rotate(270, 22.205333333333332, 22.205333333333332)"><svg xmlns="http://www.w3.org/2000/svg" id="Layer_1" data-name="Layer 1" viewBox="0 0 100 100" width="44.410666666666664" height="44.410666666666664"><path d="M50,100a50,50,0,1,1,50-50v50Z" fill="#3D348B"/></svg></g><g transform="translate(355.29,&#10;                                666.16) rotate(90, 22.205333333333332, 22.205333333333332)"><svg xmlns="http://www.w3.org/2000/svg" id="Layer_1" data-name="Layer 1" viewBox="0 0 100 100" width="44.410666666666664" height="44.410666666666664"><circle cx="50" cy="50" r="50" fill="#7678ED"/></svg></g><g transform="translate(399.70,&#10;                                621.75) rotate(90, 22.205333333333332, 22.205333333333332)"><svg xmlns="http://www.w3.org/2000/svg" id="Layer_1" data-name="Layer 1" viewBox="0 0 100 100" width="44.410666666666664" height="44.410666666666664"><circle cx="50" cy="50" r="50" fill="#7678ED"/></svg></g><g transform="translate(444.11,&#10;                                621.75) rotate(180, 22.205333333333332, 22.205333333333332)"><svg xmlns="http://www.w3.org/2000/svg" id="Layer_1" data-name="Layer 1" viewBox="0 0 100 100" width="44.410666666666664" height="44.410666666666664"><path d="M50,100h0A50,50,0,0,1,0,50V0H100V50A50,50,0,0,1,50,100Z" fill="#F18701"/></svg></g><g transform="translate(488.52,&#10;                                621.75) rotate(270, 22.205333333333332, 22.205333333333332)"><svg xmlns="http://www.w3.org/2000/svg" id="Layer_1" data-name="Layer 1" viewBox="0 0 100 100" width="44.410666666666664" height="44.410666666666664"><path d="M50,100a50,50,0,1,1,50-50v50Z" fill="#3D348B"/></svg></g><g transform="translate(399.70,&#10;                                666.16) rotate(270, 22.205333333333332, 22.205333333333332)"><svg xmlns="http://www.w3.org/2000/svg" id="Layer_1" data-name="Layer 1" viewBox="0 0 100 100" width="44.410666666666664" height="44.410666666666664"><path d="M50,100h0A50,50,0,0,1,0,50V0H100V50A50,50,0,0,1,50,100Z" fill="#F18701"/></svg></g></g></svg>