<svg class="border shadow-md" viewBox="0 0 1184.2844444444445 666.16" xmlns="http://www.w3.org/2000/svg" preserveAspectRatio="none" style="width: 1184.28px; height: 666.16px;"><rect class="bg" id="bg" x="0" y="0" width="1184.2844444444445" height="666.16" fill="#ffffff"/><path d="M 0 -28.963478260869564 L 0 -28.96&#10;                L 57.00 -12.96&#10;                L 169.18349206349208 -28.96 L 169.18349206349208 -28.96&#10;                L 248.18 -14.48&#10;                L 338.36698412698416 -28.96 L 338.36698412698416 -28.96&#10;                L 394.76 -10.96&#10;                L 507.5504761904763 -28.96 L 507.5504761904763 -28.96&#10;                L 563.94 -14.48&#10;                L 676.7339682539683 -28.96 L 676.7339682539683 -28.96&#10;                L 733.13 -7.96&#10;                L 845.9174603174604 -28.96 L 845.9174603174604 -28.96&#10;                L 958.92 -3.96&#10;                L 1015.1009523809524 -28.96 L 1015.1009523809525 -28.96&#10;                L 1138.10 -5.96&#10;                L 1184.2844444444447 -28.96 L 1184.2844444444445 -28.96&#10;                L 1256.28 -14.48&#10;                L 1353.4679365079367 -28.96  V 666.16 H 0 V -28.96 Z" fill="#FFFFFF"/><path d="M 0 0 L 0 0.00&#10;                L 110.00 14.48&#10;                L 169.18349206349208 0.00 L 169.18349206349208 0.00&#10;                L 262.18 14.48&#10;                L 338.36698412698416 0.00 L 338.36698412698416 0.00&#10;                L 394.76 19.00&#10;                L 507.5504761904763 0.00 L 507.5504761904763 0.00&#10;                L 563.94 14.48&#10;                L 676.7339682539683 0.00 L 676.7339682539683 0.00&#10;                L 733.13 14.48&#10;                L 845.9174603174604 0.00 L 845.9174603174604 0.00&#10;                L 952.92 20.00&#10;                L 1015.1009523809524 0.00 L 1015.1009523809525 0.00&#10;                L 1089.10 22.00&#10;                L 1184.2844444444447 0.00 L 1184.2844444444445 0.00&#10;                L 1240.68 14.48&#10;                L 1353.4679365079367 0.00  V 666.16 H 0 V 0.00 Z" fill="#f8f5fa"/><path d="M 0 28.963478260869564 L 0 28.96&#10;                L 56.39 43.45&#10;                L 169.18349206349208 28.96 L 169.18349206349208 28.96&#10;                L 261.18 53.96&#10;                L 338.36698412698416 28.96 L 338.36698412698416 28.96&#10;                L 426.37 56.96&#10;                L 507.5504761904763 28.96 L 507.5504761904763 28.96&#10;                L 563.94 44.96&#10;                L 676.7339682539683 28.96 L 676.7339682539683 28.96&#10;                L 733.13 43.45&#10;                L 845.9174603174604 28.96 L 845.9174603174604 28.96&#10;                L 902.31 45.96&#10;                L 1015.1009523809524 28.96 L 1015.1009523809525 28.96&#10;                L 1135.10 43.45&#10;                L 1184.2844444444447 28.96 L 1184.2844444444445 28.96&#10;                L 1240.68 43.45&#10;                L 1353.4679365079367 28.96  V 666.16 H 0 V 28.96 Z" fill="#f1ebf5"/><path d="M 0 57.92695652173913 L 0 57.93&#10;                L 56.39 72.41&#10;                L 169.18349206349208 57.93 L 169.18349206349208 57.93&#10;                L 225.58 75.93&#10;                L 338.36698412698416 57.93 L 338.36698412698416 57.93&#10;                L 394.76 81.93&#10;                L 507.5504761904763 57.93 L 507.5504761904763 57.93&#10;                L 612.55 72.41&#10;                L 676.7339682539683 57.93 L 676.7339682539683 57.93&#10;                L 799.73 72.41&#10;                L 845.9174603174604 57.93 L 845.9174603174604 57.93&#10;                L 902.92 72.93&#10;                L 1015.1009523809524 57.93 L 1015.1009523809525 57.93&#10;                L 1071.50 72.41&#10;                L 1184.2844444444447 57.93 L 1184.2844444444445 57.93&#10;                L 1262.28 72.41&#10;                L 1353.4679365079367 57.93  V 666.16 H 0 V 57.93 Z" fill="#eae1f0"/><path d="M 0 86.8904347826087 L 0 86.89&#10;                L 71.00 101.37&#10;                L 169.18349206349208 86.89 L 169.18349206349208 86.89&#10;                L 225.58 103.89&#10;                L 338.36698412698416 86.89 L 338.36698412698416 86.89&#10;                L 462.37 101.37&#10;                L 507.5504761904763 86.89 L 507.5504761904763 86.89&#10;                L 563.94 104.89&#10;                L 676.7339682539683 86.89 L 676.7339682539683 86.89&#10;                L 754.73 101.37&#10;                L 845.9174603174604 86.89 L 845.9174603174604 86.89&#10;                L 909.92 101.37&#10;                L 1015.1009523809524 86.89 L 1015.1009523809525 86.89&#10;                L 1071.50 101.37&#10;                L 1184.2844444444447 86.89 L 1184.2844444444445 86.89&#10;                L 1307.28 101.37&#10;                L 1353.4679365079367 86.89  V 666.16 H 0 V 86.89 Z" fill="#e3d7eb"/><path d="M 0 115.85391304347826 L 0 115.85&#10;                L 74.00 130.34&#10;                L 169.18349206349208 115.85 L 169.18349206349208 115.85&#10;                L 272.18 130.34&#10;                L 338.36698412698416 115.85 L 338.36698412698416 115.85&#10;                L 448.37 133.85&#10;                L 507.5504761904763 115.85 L 507.5504761904763 115.85&#10;                L 571.55 141.85&#10;                L 676.7339682539683 115.85 L 676.7339682539683 115.85&#10;                L 733.13 130.34&#10;                L 845.9174603174604 115.85 L 845.9174603174604 115.85&#10;                L 914.92 130.34&#10;                L 1015.1009523809524 115.85 L 1015.1009523809525 115.85&#10;                L 1100.10 130.34&#10;                L 1184.2844444444447 115.85 L 1184.2844444444445 115.85&#10;                L 1240.68 130.34&#10;                L 1353.4679365079367 115.85  V 666.16 H 0 V 115.85 Z" fill="#dccde6"/><path d="M 0 144.81739130434784 L 0 144.82&#10;                L 99.00 159.30&#10;                L 169.18349206349208 144.82 L 169.18349206349208 144.82&#10;                L 225.58 159.30&#10;                L 338.36698412698416 144.82 L 338.36698412698416 144.82&#10;                L 424.37 159.82&#10;                L 507.5504761904763 144.82 L 507.5504761904763 144.82&#10;                L 563.94 159.30&#10;                L 676.7339682539683 144.82 L 676.7339682539683 144.82&#10;                L 733.13 161.82&#10;                L 845.9174603174604 144.82 L 845.9174603174604 144.82&#10;                L 946.92 159.30&#10;                L 1015.1009523809524 144.82 L 1015.1009523809525 144.82&#10;                L 1095.10 159.30&#10;                L 1184.2844444444447 144.82 L 1184.2844444444445 144.82&#10;                L 1271.28 172.82&#10;                L 1353.4679365079367 144.82  V 666.16 H 0 V 144.82 Z" fill="#d5c3e1"/><path d="M 0 173.7808695652174 L 0 173.78&#10;                L 56.39 188.26&#10;                L 169.18349206349208 173.78 L 169.18349206349208 173.78&#10;                L 287.18 193.78&#10;                L 338.36698412698416 173.78 L 338.36698412698416 173.78&#10;                L 425.37 188.26&#10;                L 507.5504761904763 173.78 L 507.5504761904763 173.78&#10;                L 632.55 188.26&#10;                L 676.7339682539683 173.78 L 676.7339682539683 173.78&#10;                L 733.13 188.78&#10;                L 845.9174603174604 173.78 L 845.9174603174604 173.78&#10;                L 902.31 196.78&#10;                L 1015.1009523809524 173.78 L 1015.1009523809525 173.78&#10;                L 1071.50 188.26&#10;                L 1184.2844444444447 173.78 L 1184.2844444444445 173.78&#10;                L 1251.28 201.78&#10;                L 1353.4679365079367 173.78  V 666.16 H 0 V 173.78 Z" fill="#ceb9dc"/><path d="M 0 202.74434782608694 L 0 202.74&#10;                L 98.00 217.23&#10;                L 169.18349206349208 202.74 L 169.18349206349208 202.74&#10;                L 230.18 217.74&#10;                L 338.36698412698416 202.74 L 338.36698412698416 202.74&#10;                L 394.76 217.23&#10;                L 507.5504761904763 202.74 L 507.5504761904763 202.74&#10;                L 563.94 227.74&#10;                L 676.7339682539683 202.74 L 676.7339682539683 202.74&#10;                L 733.13 217.23&#10;                L 845.9174603174604 202.74 L 845.9174603174604 202.74&#10;                L 923.92 225.74&#10;                L 1015.1009523809524 202.74 L 1015.1009523809525 202.74&#10;                L 1093.10 217.23&#10;                L 1184.2844444444447 202.74 L 1184.2844444444445 202.74&#10;                L 1279.28 217.23&#10;                L 1353.4679365079367 202.74  V 666.16 H 0 V 202.74 Z" fill="#c7afd7"/><path d="M 0 231.70782608695652 L 0 231.71&#10;                L 113.00 251.71&#10;                L 169.18349206349208 231.71 L 169.18349206349208 231.71&#10;                L 281.18 246.19&#10;                L 338.36698412698416 231.71 L 338.36698412698416 231.71&#10;                L 394.76 246.19&#10;                L 507.5504761904763 231.71 L 507.5504761904763 231.71&#10;                L 563.94 251.71&#10;                L 676.7339682539683 231.71 L 676.7339682539683 231.71&#10;                L 756.73 248.71&#10;                L 845.9174603174604 231.71 L 845.9174603174604 231.71&#10;                L 962.92 246.19&#10;                L 1015.1009523809524 231.71 L 1015.1009523809525 231.71&#10;                L 1104.10 246.19&#10;                L 1184.2844444444447 231.71 L 1184.2844444444445 231.71&#10;                L 1261.28 254.71&#10;                L 1353.4679365079367 231.71  V 666.16 H 0 V 231.71 Z" fill="#c0a5d2"/><path d="M 0 260.6713043478261 L 0 260.67&#10;                L 75.00 275.15&#10;                L 169.18349206349208 260.67 L 169.18349206349208 260.67&#10;                L 225.58 286.67&#10;                L 338.36698412698416 260.67 L 338.36698412698416 260.67&#10;                L 394.76 275.15&#10;                L 507.5504761904763 260.67 L 507.5504761904763 260.67&#10;                L 563.94 287.67&#10;                L 676.7339682539683 260.67 L 676.7339682539683 260.67&#10;                L 733.13 284.67&#10;                L 845.9174603174604 260.67 L 845.9174603174604 260.67&#10;                L 902.31 286.67&#10;                L 1015.1009523809524 260.67 L 1015.1009523809525 260.67&#10;                L 1117.10 275.15&#10;                L 1184.2844444444447 260.67 L 1184.2844444444445 260.67&#10;                L 1240.68 284.67&#10;                L 1353.4679365079367 260.67  V 666.16 H 0 V 260.67 Z" fill="#b99bcd"/><path d="M 0 289.6347826086957 L 0 289.63&#10;                L 56.39 308.63&#10;                L 169.18349206349208 289.63 L 169.18349206349208 289.63&#10;                L 231.18 307.63&#10;                L 338.36698412698416 289.63 L 338.36698412698416 289.63&#10;                L 419.37 304.12&#10;                L 507.5504761904763 289.63 L 507.5504761904763 289.63&#10;                L 631.55 304.12&#10;                L 676.7339682539683 289.63 L 676.7339682539683 289.63&#10;                L 733.13 306.63&#10;                L 845.9174603174604 289.63 L 845.9174603174604 289.63&#10;                L 939.92 304.12&#10;                L 1015.1009523809524 289.63 L 1015.1009523809525 289.63&#10;                L 1071.50 304.12&#10;                L 1184.2844444444447 289.63 L 1184.2844444444445 289.63&#10;                L 1240.68 311.63&#10;                L 1353.4679365079367 289.63  V 666.16 H 0 V 289.63 Z" fill="#b291c8"/><path d="M 0 318.5982608695652 L 0 318.60&#10;                L 86.00 337.60&#10;                L 169.18349206349208 318.60 L 169.18349206349208 318.60&#10;                L 287.18 333.60&#10;                L 338.36698412698416 318.60 L 338.36698412698416 318.60&#10;                L 394.76 333.08&#10;                L 507.5504761904763 318.60 L 507.5504761904763 318.60&#10;                L 599.55 333.60&#10;                L 676.7339682539683 318.60 L 676.7339682539683 318.60&#10;                L 751.73 337.60&#10;                L 845.9174603174604 318.60 L 845.9174603174604 318.60&#10;                L 902.31 336.60&#10;                L 1015.1009523809524 318.60 L 1015.1009523809525 318.60&#10;                L 1134.10 333.08&#10;                L 1184.2844444444447 318.60 L 1184.2844444444445 318.60&#10;                L 1272.28 342.60&#10;                L 1353.4679365079367 318.60  V 666.16 H 0 V 318.60 Z" fill="#ab87c3"/><path d="M 0 347.5617391304348 L 0 347.56&#10;                L 56.39 362.04&#10;                L 169.18349206349208 347.56 L 169.18349206349208 347.56&#10;                L 225.58 362.04&#10;                L 338.36698412698416 347.56 L 338.36698412698416 347.56&#10;                L 394.76 364.56&#10;                L 507.5504761904763 347.56 L 507.5504761904763 347.56&#10;                L 632.55 362.04&#10;                L 676.7339682539683 347.56 L 676.7339682539683 347.56&#10;                L 787.73 362.04&#10;                L 845.9174603174604 347.56 L 845.9174603174604 347.56&#10;                L 902.31 375.56&#10;                L 1015.1009523809524 347.56 L 1015.1009523809525 347.56&#10;                L 1071.50 362.04&#10;                L 1184.2844444444447 347.56 L 1184.2844444444445 347.56&#10;                L 1240.68 365.56&#10;                L 1353.4679365079367 347.56  V 666.16 H 0 V 347.56 Z" fill="#a47dbe"/><path d="M 0 376.52521739130435 L 0 376.53&#10;                L 84.00 391.01&#10;                L 169.18349206349208 376.53 L 169.18349206349208 376.53&#10;                L 225.58 391.01&#10;                L 338.36698412698416 376.53 L 338.36698412698416 376.53&#10;                L 394.76 394.53&#10;                L 507.5504761904763 376.53 L 507.5504761904763 376.53&#10;                L 563.94 391.01&#10;                L 676.7339682539683 376.53 L 676.7339682539683 376.53&#10;                L 777.73 391.01&#10;                L 845.9174603174604 376.53 L 845.9174603174604 376.53&#10;                L 960.92 391.01&#10;                L 1015.1009523809524 376.53 L 1015.1009523809525 376.53&#10;                L 1071.50 402.53&#10;                L 1184.2844444444447 376.53 L 1184.2844444444445 376.53&#10;                L 1243.28 391.01&#10;                L 1353.4679365079367 376.53  V 666.16 H 0 V 376.53 Z" fill="#9d73b9"/><path d="M 0 405.4886956521739 L 0 405.49&#10;                L 60.00 419.97&#10;                L 169.18349206349208 405.49 L 169.18349206349208 405.49&#10;                L 248.18 433.49&#10;                L 338.36698412698416 405.49 L 338.36698412698416 405.49&#10;                L 394.76 429.49&#10;                L 507.5504761904763 405.49 L 507.5504761904763 405.49&#10;                L 563.94 420.49&#10;                L 676.7339682539683 405.49 L 676.7339682539683 405.49&#10;                L 742.73 420.49&#10;                L 845.9174603174604 405.49 L 845.9174603174604 405.49&#10;                L 910.92 419.97&#10;                L 1015.1009523809524 405.49 L 1015.1009523809525 405.49&#10;                L 1076.10 425.49&#10;                L 1184.2844444444447 405.49 L 1184.2844444444445 405.49&#10;                L 1240.68 419.97&#10;                L 1353.4679365079367 405.49  V 666.16 H 0 V 405.49 Z" fill="#9669b4"/><path d="M 0 434.45217391304345 L 0 434.45&#10;                L 72.00 448.93&#10;                L 169.18349206349208 434.45 L 169.18349206349208 434.45&#10;                L 225.58 448.93&#10;                L 338.36698412698416 434.45 L 338.36698412698416 434.45&#10;                L 403.37 448.93&#10;                L 507.5504761904763 434.45 L 507.5504761904763 434.45&#10;                L 563.94 448.93&#10;                L 676.7339682539683 434.45 L 676.7339682539683 434.45&#10;                L 733.13 448.93&#10;                L 845.9174603174604 434.45 L 845.9174603174604 434.45&#10;                L 914.92 448.93&#10;                L 1015.1009523809524 434.45 L 1015.1009523809525 434.45&#10;                L 1071.50 452.45&#10;                L 1184.2844444444447 434.45 L 1184.2844444444445 434.45&#10;                L 1265.28 456.45&#10;                L 1353.4679365079367 434.45  V 666.16 H 0 V 434.45 Z" fill="#8f5faf"/><path d="M 0 463.41565217391303 L 0 463.42&#10;                L 68.00 477.90&#10;                L 169.18349206349208 463.42 L 169.18349206349208 463.42&#10;                L 283.18 487.42&#10;                L 338.36698412698416 463.42 L 338.36698412698416 463.42&#10;                L 394.76 477.90&#10;                L 507.5504761904763 463.42 L 507.5504761904763 463.42&#10;                L 628.55 488.42&#10;                L 676.7339682539683 463.42 L 676.7339682539683 463.42&#10;                L 786.73 477.90&#10;                L 845.9174603174604 463.42 L 845.9174603174604 463.42&#10;                L 952.92 482.42&#10;                L 1015.1009523809524 463.42 L 1015.1009523809525 463.42&#10;                L 1071.50 477.90&#10;                L 1184.2844444444447 463.42 L 1184.2844444444445 463.42&#10;                L 1296.28 477.90&#10;                L 1353.4679365079367 463.42  V 666.16 H 0 V 463.42 Z" fill="#8855aa"/><path d="M 0 492.3791304347826 L 0 492.38&#10;                L 59.00 508.38&#10;                L 169.18349206349208 492.38 L 169.18349206349208 492.38&#10;                L 225.58 511.38&#10;                L 338.36698412698416 492.38 L 338.36698412698416 492.38&#10;                L 448.37 518.38&#10;                L 507.5504761904763 492.38 L 507.5504761904763 492.38&#10;                L 615.55 506.86&#10;                L 676.7339682539683 492.38 L 676.7339682539683 492.38&#10;                L 733.13 520.38&#10;                L 845.9174603174604 492.38 L 845.9174603174604 492.38&#10;                L 930.92 506.86&#10;                L 1015.1009523809524 492.38 L 1015.1009523809525 492.38&#10;                L 1071.50 508.38&#10;                L 1184.2844444444447 492.38 L 1184.2844444444445 492.38&#10;                L 1273.28 509.38&#10;                L 1353.4679365079367 492.38  V 666.16 H 0 V 492.38 Z" fill="#814ba5"/><path d="M 0 521.3426086956522 L 0 521.34&#10;                L 56.39 535.82&#10;                L 169.18349206349208 521.34 L 169.18349206349208 521.34&#10;                L 288.18 535.82&#10;                L 338.36698412698416 521.34 L 338.36698412698416 521.34&#10;                L 394.76 535.82&#10;                L 507.5504761904763 521.34 L 507.5504761904763 521.34&#10;                L 563.94 539.34&#10;                L 676.7339682539683 521.34 L 676.7339682539683 521.34&#10;                L 791.73 535.82&#10;                L 845.9174603174604 521.34 L 845.9174603174604 521.34&#10;                L 902.31 535.82&#10;                L 1015.1009523809524 521.34 L 1015.1009523809525 521.34&#10;                L 1071.50 535.82&#10;                L 1184.2844444444447 521.34 L 1184.2844444444445 521.34&#10;                L 1240.68 535.82&#10;                L 1353.4679365079367 521.34  V 666.16 H 0 V 521.34 Z" fill="#7a41a0"/><path d="M 0 550.3060869565218 L 0 550.31&#10;                L 124.00 564.79&#10;                L 169.18349206349208 550.31 L 169.18349206349208 550.31&#10;                L 225.58 564.79&#10;                L 338.36698412698416 550.31 L 338.36698412698416 550.31&#10;                L 438.37 564.79&#10;                L 507.5504761904763 550.31 L 507.5504761904763 550.31&#10;                L 567.55 577.31&#10;                L 676.7339682539683 550.31 L 676.7339682539683 550.31&#10;                L 733.13 573.31&#10;                L 845.9174603174604 550.31 L 845.9174603174604 550.31&#10;                L 925.92 577.31&#10;                L 1015.1009523809524 550.31 L 1015.1009523809525 550.31&#10;                L 1122.10 564.79&#10;                L 1184.2844444444447 550.31 L 1184.2844444444445 550.31&#10;                L 1288.28 571.31&#10;                L 1353.4679365079367 550.31  V 666.16 H 0 V 550.31 Z" fill="#73379b"/><path d="M 0 579.2695652173913 L 0 579.27&#10;                L 68.00 602.27&#10;                L 169.18349206349208 579.27 L 169.18349206349208 579.27&#10;                L 225.58 593.75&#10;                L 338.36698412698416 579.27 L 338.36698412698416 579.27&#10;                L 394.76 593.75&#10;                L 507.5504761904763 579.27 L 507.5504761904763 579.27&#10;                L 586.55 593.75&#10;                L 676.7339682539683 579.27 L 676.7339682539683 579.27&#10;                L 733.13 604.27&#10;                L 845.9174603174604 579.27 L 845.9174603174604 579.27&#10;                L 942.92 593.75&#10;                L 1015.1009523809524 579.27 L 1015.1009523809525 579.27&#10;                L 1071.50 593.75&#10;                L 1184.2844444444447 579.27 L 1184.2844444444445 579.27&#10;                L 1240.68 593.75&#10;                L 1353.4679365079367 579.27  V 666.16 H 0 V 579.27 Z" fill="#6c2d96"/><path d="M 0 608.2330434782608 L 0 608.23&#10;                L 116.00 622.71&#10;                L 169.18349206349208 608.23 L 169.18349206349208 608.23&#10;                L 249.18 622.71&#10;                L 338.36698412698416 608.23 L 338.36698412698416 608.23&#10;                L 394.76 633.23&#10;                L 507.5504761904763 608.23 L 507.5504761904763 608.23&#10;                L 563.94 622.71&#10;                L 676.7339682539683 608.23 L 676.7339682539683 608.23&#10;                L 737.73 622.71&#10;                L 845.9174603174604 608.23 L 845.9174603174604 608.23&#10;                L 902.31 622.71&#10;                L 1015.1009523809524 608.23 L 1015.1009523809525 608.23&#10;                L 1071.50 636.23&#10;                L 1184.2844444444447 608.23 L 1184.2844444444445 608.23&#10;                L 1240.68 622.71&#10;                L 1353.4679365079367 608.23  V 666.16 H 0 V 608.23 Z" fill="#652391"/><path d="M 0 637.1965217391304 L 0 637.20&#10;                L 59.00 660.20&#10;                L 169.18349206349208 637.20 L 169.18349206349208 637.20&#10;                L 225.58 653.20&#10;                L 338.36698412698416 637.20 L 338.36698412698416 637.20&#10;                L 394.76 664.20&#10;                L 507.5504761904763 637.20 L 507.5504761904763 637.20&#10;                L 563.94 651.68&#10;                L 676.7339682539683 637.20 L 676.7339682539683 637.20&#10;                L 798.73 664.20&#10;                L 845.9174603174604 637.20 L 845.9174603174604 637.20&#10;                L 902.31 654.20&#10;                L 1015.1009523809524 637.20 L 1015.1009523809525 637.20&#10;                L 1071.50 651.68&#10;                L 1184.2844444444447 637.20 L 1184.2844444444445 637.20&#10;                L 1293.28 651.68&#10;                L 1353.4679365079367 637.20  V 666.16 H 0 V 637.20 Z" fill="#5e198c"/></svg>